<?xml version="1.0" standalone="no"?>
<!DOCTYPE svg PUBLIC "-//W3C//DTD SVG 20010904//EN"
 "http://www.w3.org/TR/2001/REC-SVG-20010904/DTD/svg10.dtd">
<svg version="1.0" xmlns="http://www.w3.org/2000/svg"
 width="1440.000000pt" height="960.000000pt" viewBox="0 0 1440.000000 960.000000"
 preserveAspectRatio="xMidYMid meet">

<g transform="translate(0.000000,960.000000) scale(0.100000,-0.100000)"
fill="#000000" stroke="none">
<path d="M11310 9591 c0 -14 29 -41 44 -41 16 0 36 21 36 37 0 9 -14 13 -40
13 -22 0 -40 -4 -40 -9z"/>
<path d="M11730 9530 c0 -40 2 -71 5 -68 8 7 8 128 1 135 -3 4 -6 -27 -6 -67z"/>
<path d="M11521 9489 c-6 -17 -11 -49 -11 -70 0 -34 3 -39 24 -39 23 0 24 2
19 63 -7 75 -17 90 -32 46z"/>
<path d="M11350 9469 c-29 -12 -42 -29 -35 -48 20 -54 50 -314 60 -521 3 -63
11 -146 17 -183 10 -57 9 -80 -5 -140 -16 -65 -16 -80 -3 -157 20 -115 34
-312 41 -572 7 -258 12 -251 -119 -164 -124 83 -255 151 -268 138 -6 -6 -24
-43 -39 -82 -16 -39 -48 -101 -72 -138 -24 -37 -70 -110 -102 -162 -32 -52
-80 -129 -107 -170 -28 -41 -61 -95 -74 -120 -13 -25 -66 -110 -118 -190 -202
-310 -281 -435 -289 -453 -9 -24 32 -244 49 -261 16 -17 316 -30 363 -16 21 6
40 6 52 0 18 -10 188 -20 419 -25 84 -1 154 -8 185 -18 31 -9 70 -13 100 -10
86 9 118 7 179 -15 50 -19 65 -20 102 -11 46 12 97 8 182 -12 45 -11 62 -11
126 5 69 17 76 18 106 2 44 -22 121 -20 222 4 102 24 158 26 158 5 0 -20 139
-21 178 -1 35 18 96 23 113 9 8 -6 40 -16 71 -23 105 -24 121 10 119 245 -1
203 -19 317 -86 565 -34 122 -48 141 -57 74 -3 -27 -7 -97 -7 -156 -1 -59 -5
-109 -10 -112 -5 -3 -22 8 -40 24 -17 17 -38 30 -46 30 -10 0 -15 10 -15 26 0
25 -2 26 -40 21 -38 -5 -40 -4 -40 22 0 28 -30 51 -65 51 -8 0 -15 4 -15 9 0
5 -9 11 -20 14 -11 3 -25 18 -31 34 -26 61 -30 440 -6 466 7 7 13 51 14 105 2
90 3 94 32 121 17 16 31 36 31 45 0 18 46 23 52 5 6 -19 75 -18 91 1 13 16 13
19 -9 29 -14 6 -24 19 -24 32 0 17 3 19 13 10 42 -34 19 35 -43 127 -55 83
-98 115 -161 118 -31 1 -71 13 -104 29 l-54 28 -53 -22 c-29 -11 -69 -24 -88
-28 -65 -12 -115 -41 -178 -103 -84 -83 -107 -132 -120 -250 -6 -52 -14 -108
-18 -124 -4 -17 -2 -31 4 -35 8 -5 8 -18 1 -46 -6 -22 -16 -70 -21 -107 -7
-46 -15 -68 -24 -68 -9 0 -14 -11 -14 -27 l0 -28 -25 26 c-24 24 -26 34 -32
150 -3 68 -11 135 -18 149 -7 14 -15 77 -19 140 -4 63 -16 185 -26 270 -11 85
-27 247 -35 360 -8 113 -20 252 -25 310 -6 58 -15 202 -20 320 -11 224 -17
290 -29 290 -4 0 -18 -11 -31 -25 -22 -23 -22 -28 -16 -137 4 -62 16 -156 26
-209 20 -101 52 -505 70 -869 6 -118 15 -300 20 -404 6 -106 7 -193 2 -198
-14 -14 -56 7 -89 45 l-31 35 -6 179 c-4 98 -11 221 -16 273 -6 52 -15 226
-20 386 -6 203 -14 304 -24 335 -7 24 -17 100 -21 169 -3 68 -13 176 -21 239
-8 63 -14 168 -14 232 0 154 -3 161 -60 138z m867 -1530 c7 -7 8 -22 3 -42 -5
-18 -11 -70 -14 -117 -12 -185 -47 -476 -63 -520 -2 -8 -6 -37 -8 -65 -5 -64
-9 -87 -29 -164 -9 -34 -16 -71 -16 -82 0 -10 -4 -19 -10 -19 -5 0 -10 -20
-10 -45 0 -27 -5 -45 -11 -45 -13 0 -5 166 12 255 6 28 17 109 25 180 9 72 20
164 25 205 18 149 27 296 22 358 -4 42 -2 71 7 87 14 26 48 33 67 14z"/>
<path d="M11732 9255 c0 -16 2 -22 5 -12 2 9 2 23 0 30 -3 6 -5 -1 -5 -18z"/>
<path d="M8408 8380 c-12 -28 -17 -105 -9 -140 l8 -35 7 35 c9 42 3 162 -6
140z"/>
<path d="M11760 8051 c0 -77 4 -142 9 -145 10 -6 20 178 13 241 -10 90 -22 38
-22 -96z"/>
<path d="M9600 8073 c-12 -26 -20 -55 -35 -128 -4 -16 -15 -48 -25 -70 -10
-22 -35 -105 -55 -185 -44 -171 -52 -200 -73 -260 l-16 -45 -9 58 c-6 36 -6
75 0 100 7 34 5 49 -11 81 -17 33 -18 43 -7 73 7 19 11 36 9 39 -3 2 -24 -47
-48 -109 -24 -61 -57 -134 -73 -162 -16 -27 -32 -57 -36 -65 -15 -28 -38 -23
-45 11 -11 55 -7 89 9 89 21 0 20 76 -1 97 -12 12 -15 32 -12 84 3 73 -2 77
-22 14 -7 -22 -16 -42 -19 -45 -14 -11 -58 -89 -80 -140 -55 -130 -134 -280
-147 -280 -7 0 -16 11 -20 25 -12 50 -24 11 -24 -81 0 -73 -3 -94 -14 -94 -7
0 -19 7 -26 15 -16 20 -29 19 -37 -2 -3 -10 -12 -25 -18 -33 -7 -8 -23 -44
-36 -80 -15 -40 -25 -58 -27 -46 -5 25 16 132 33 171 27 62 38 103 31 121 -7
18 -9 17 -21 -6 -14 -25 -14 -25 -15 15 0 22 5 89 11 149 9 83 9 121 0 155 -6
25 -18 90 -26 144 -8 53 -18 105 -24 114 -8 15 -13 11 -29 -27 -11 -25 -23
-61 -27 -80 -4 -19 -22 -65 -40 -102 -29 -58 -35 -82 -45 -190 -16 -191 -45
-412 -55 -428 -11 -17 -21 -76 -35 -205 -6 -49 -12 -96 -15 -102 -13 -37 -55
12 -70 81 -11 49 -32 11 -45 -80 -6 -44 -13 -91 -15 -105 -3 -13 -9 -81 -15
-150 -5 -70 -14 -137 -19 -150 -12 -27 -32 -249 -25 -261 7 -10 -15 -74 -38
-113 l-18 -30 0 70 c1 39 7 140 15 225 52 557 69 790 56 790 -5 0 -19 -16 -30
-36 -12 -20 -24 -34 -27 -31 -8 7 26 179 37 191 4 5 -3 18 -17 29 l-25 19 -25
-23 -24 -23 6 35 c4 19 11 39 16 46 5 7 7 17 4 22 -4 5 2 29 13 53 16 37 88
282 136 468 14 54 20 118 10 108 -3 -3 -12 -29 -21 -59 -8 -30 -19 -69 -24
-86 -6 -18 -14 -48 -19 -65 -17 -58 -69 -206 -81 -227 -6 -12 -19 -21 -28 -21
-13 0 -23 20 -41 88 -12 48 -34 123 -47 166 -13 44 -24 90 -24 104 0 14 -3 22
-7 18 -4 -3 -6 -36 -6 -71 1 -47 -3 -70 -14 -81 -9 -8 -20 -11 -24 -7 -15 15
-29 112 -30 207 -1 81 -15 182 -18 132 -1 -13 -6 -17 -22 -13 -12 3 -22 0 -26
-9 -3 -8 -11 -14 -18 -14 -32 0 -33 -92 -4 -228 17 -77 20 -112 14 -172 -8
-81 -10 -193 -6 -335 1 -49 2 -101 1 -115 0 -14 1 -38 2 -55 2 -23 -2 -32 -19
-40 -12 -5 -24 -16 -26 -25 -2 -9 1 -96 7 -193 11 -177 7 -265 -7 -182 -24
128 -29 163 -32 195 -5 68 -28 155 -51 186 -19 26 -21 38 -17 98 6 67 6 68
-16 61 -31 -10 -50 19 -51 75 0 26 -5 51 -12 58 -10 10 -20 235 -27 590 -2 58
-18 34 -25 -35 -10 -102 -27 -173 -43 -173 -7 0 -13 5 -13 12 0 9 -3 9 -12 0
-8 -8 -13 -82 -14 -249 -4 -336 -14 -842 -18 -878 -2 -16 -4 -40 -5 -53 -2
-44 -19 -12 -26 50 -3 35 -9 81 -11 103 -3 22 -7 63 -10 90 -3 28 -8 71 -11
96 -4 43 -3 46 19 45 22 -1 23 3 26 69 3 57 -2 83 -24 138 -17 46 -34 72 -49
79 -26 11 -41 39 -48 83 -17 101 -46 194 -89 282 -12 25 -32 21 -24 -5 8 -24
-6 -41 -29 -39 -16 2 -20 -4 -18 -23 12 -143 22 -414 17 -449 l-7 -44 -21 44
c-20 43 -21 43 -24 16 -2 -16 1 -42 7 -58 10 -29 0 -123 -18 -172 -7 -17 -4
-33 7 -56 13 -28 13 -34 1 -42 -11 -7 -11 -9 4 -9 16 0 57 -53 57 -74 0 -5
-28 18 -63 51 -34 33 -73 63 -85 67 -26 8 -66 46 -75 70 -4 9 -11 16 -18 16
-7 0 -8 -7 -4 -17 4 -10 11 -31 16 -48 7 -24 6 -27 -4 -15 -13 18 -47 15 -47
-3 0 -7 9 -25 20 -42 11 -16 20 -38 20 -47 0 -10 6 -18 13 -18 13 0 17 -11 17
-47 -1 -54 1 -67 8 -72 4 -3 9 -15 11 -26 5 -33 21 -55 39 -55 16 -1 16 -1 0
-11 -23 -13 -23 -26 2 -73 10 -21 22 -58 26 -82 3 -25 10 -47 15 -50 5 -3 9
-14 9 -24 0 -11 9 -35 20 -55 11 -20 20 -48 20 -63 0 -16 4 -32 9 -37 4 -6 11
-22 15 -37 5 -22 1 -31 -19 -44 -18 -12 -25 -25 -25 -49 l0 -33 98 -5 c53 -3
108 -5 122 -4 14 0 80 -3 147 -7 l123 -8 10 27 c5 14 10 59 10 98 1 46 6 81
16 97 14 23 14 15 9 -96 l-7 -122 79 -6 c43 -3 159 -8 258 -11 269 -9 1049
-44 1215 -55 214 -14 195 -18 210 38 7 26 24 70 37 99 12 28 23 54 23 57 0 3
18 44 41 93 22 48 51 111 64 138 12 28 42 92 65 144 54 122 227 462 268 525
35 54 45 98 14 59 -9 -12 -29 -25 -44 -28 -16 -4 -28 -11 -28 -15 0 -5 -9 -12
-20 -15 -11 -4 -38 -34 -59 -68 -56 -88 -80 -117 -98 -117 -17 0 -14 33 8 87
15 38 1 63 -37 63 -18 0 -24 -5 -24 -23 0 -12 -9 -28 -20 -35 -11 -7 -20 -20
-20 -31 0 -10 -9 -26 -20 -36 -11 -10 -20 -14 -20 -9 0 5 -6 -1 -13 -13 -80
-141 -97 -173 -97 -185 0 -8 -13 -27 -28 -42 -25 -23 -31 -25 -41 -12 -13 16
-8 65 14 126 7 19 21 64 31 100 9 36 21 70 25 75 3 6 18 44 32 85 14 41 55
145 92 230 68 157 105 254 105 274 0 6 -5 3 -11 -6 -5 -10 -19 -18 -31 -18
-18 0 -20 4 -14 38 4 20 9 80 11 132 7 141 12 192 24 223 11 28 15 85 6 76 -6
-7 -75 -271 -85 -329 -9 -51 -21 -84 -53 -152 -23 -50 -42 -61 -52 -30 -6 20
10 148 24 197 5 17 12 62 15 100 3 39 17 135 30 215 25 152 51 388 44 396 -3
2 -11 -8 -18 -23z m-1520 -598 c0 -8 -2 -15 -4 -15 -2 0 -6 7 -10 15 -3 8 -1
15 4 15 6 0 10 -7 10 -15z m70 -235 c0 -11 -4 -20 -10 -20 -5 0 -10 9 -10 20
0 11 5 20 10 20 6 0 10 -9 10 -20z m-830 -78 c0 -15 -2 -15 -10 -2 -13 20 -13
33 0 25 6 -3 10 -14 10 -23z"/>
<path d="M8856 7978 c-3 -13 -6 -42 -6 -65 0 -23 -5 -45 -11 -48 -7 -5 -8 -25
-4 -57 5 -31 1 -91 -10 -161 -19 -118 -14 -272 7 -265 6 2 23 35 38 73 15 39
48 113 73 165 56 112 71 202 43 244 -9 14 -16 36 -16 48 0 47 -17 51 -30 6 -7
-25 -24 -53 -42 -67 l-29 -24 7 87 c4 56 3 86 -3 86 -6 0 -13 -10 -17 -22z"/>
<path d="M8772 7900 c-19 -31 -12 -218 8 -205 4 3 11 40 15 82 4 43 11 83 17
90 6 8 6 19 -2 32 -13 26 -22 26 -38 1z"/>
<path d="M10880 7855 c-14 -8 -41 -14 -61 -15 -35 0 -37 -2 -53 -50 -9 -27
-19 -71 -23 -97 -3 -27 -17 -68 -30 -92 -12 -24 -23 -49 -23 -56 0 -19 -66
-178 -121 -294 -58 -120 -59 -163 -3 -80 20 30 45 63 54 74 16 18 161 228 265
385 58 86 102 204 85 225 -16 19 -57 19 -90 0z"/>
<path d="M9421 7842 c-6 -12 -11 -28 -11 -36 0 -9 -4 -16 -9 -16 -5 0 -11 -9
-14 -20 -9 -35 14 -10 34 38 20 46 20 70 0 34z"/>
<path d="M10670 7826 c-14 -8 -50 -53 -80 -100 -94 -147 -254 -391 -260 -396
-4 -3 -23 -32 -43 -65 -56 -93 -74 -185 -68 -355 2 -87 -10 -97 114 90 102
153 200 323 262 452 44 95 120 308 127 358 4 29 -16 36 -52 16z"/>
<path d="M10404 6937 c-16 -14 -48 -62 -71 -109 -23 -46 -58 -101 -78 -122
-19 -21 -35 -41 -35 -45 0 -3 -10 -17 -23 -31 -13 -14 -32 -40 -42 -58 -11
-17 -27 -35 -37 -38 -38 -12 -156 -143 -229 -254 -42 -63 -116 -191 -164 -285
-48 -93 -104 -197 -124 -230 -48 -78 -44 -95 17 -95 l47 0 57 108 c32 59 82
148 112 197 30 50 81 135 112 190 32 55 82 137 111 182 29 46 53 85 53 88 0 2
17 30 39 62 93 140 119 181 144 230 14 28 37 63 50 77 31 33 101 146 94 152
-2 3 -17 -6 -33 -19z"/>
<path d="M13651 6475 c0 -5 6 -21 14 -35 8 -14 14 -20 14 -15 0 6 -6 21 -14
35 -8 14 -14 21 -14 15z"/>
<path d="M13706 6314 c-3 -9 -6 -39 -6 -67 1 -50 1 -51 15 -27 16 28 20 96 6
104 -5 3 -12 -1 -15 -10z"/>
<path d="M10457 6113 c-4 -3 -7 -14 -7 -23 0 -21 -31 -50 -52 -50 -10 0 -19
12 -23 30 -9 41 -22 38 -34 -7 -15 -53 -14 -56 14 -83 17 -16 25 -33 23 -50
-3 -26 -14 -29 -55 -16 -19 6 -23 2 -29 -30 -4 -20 -3 -49 3 -63 7 -22 14 -25
42 -23 18 2 54 -4 81 -14 41 -15 54 -16 76 -5 25 11 26 13 8 25 -13 10 -20 33
-25 77 -4 35 -11 77 -15 92 -6 28 -5 29 27 27 19 -1 40 -2 47 -1 14 1 17 41 2
41 -5 0 -10 18 -10 40 0 39 -1 40 -33 40 -19 0 -37 -3 -40 -7z"/>
<path d="M10182 6045 c3 -60 3 -60 36 -63 61 -6 85 38 30 54 -18 5 -38 20 -44
32 -21 41 -25 37 -22 -23z"/>
<path d="M10587 6053 c-11 -19 -12 -36 -5 -60 7 -26 6 -37 -7 -50 -39 -39 -42
-139 -5 -178 l23 -25 -26 -38 c-18 -24 -27 -51 -27 -75 0 -25 -7 -43 -20 -54
-11 -10 -20 -24 -20 -33 0 -8 -12 -43 -27 -77 -30 -69 -54 -81 -88 -43 -10 11
-26 20 -37 20 -13 0 -18 7 -18 26 0 38 -24 24 -28 -17 -2 -18 2 -50 9 -71 10
-32 9 -41 -5 -62 -23 -36 -21 -108 4 -131 22 -20 26 -56 9 -84 -34 -53 30
-111 124 -111 63 0 70 -9 36 -46 -12 -13 -23 -37 -25 -55 -5 -41 -22 -61 -48
-57 -17 2 -22 11 -24 46 -2 23 -6 42 -10 42 -3 0 -19 -14 -34 -32 l-27 -32 21
-28 c20 -29 20 -41 4 -128 -7 -36 4 -91 18 -89 22 4 46 -13 46 -32 0 -16 -8
-19 -42 -19 -59 0 -74 -11 -57 -39 10 -14 24 -21 47 -21 18 0 50 -11 72 -26
39 -26 50 -47 30 -59 -5 -3 -10 -15 -10 -25 0 -22 -20 -35 -72 -44 -35 -6 -44
-18 -35 -43 1 -5 16 -7 33 -5 22 2 37 -5 54 -23 13 -14 32 -25 42 -25 30 0 24
-48 -7 -56 -14 -3 -31 -1 -38 5 -20 16 -50 -9 -45 -40 3 -21 8 -24 56 -27 50
-3 52 -4 52 -31 0 -40 -31 -66 -67 -54 -15 5 -33 19 -38 30 -10 20 -11 20 -27
-2 -28 -36 -13 -63 38 -71 58 -8 67 -26 43 -81 -11 -27 -20 -75 -22 -121 -3
-70 -1 -79 19 -97 39 -34 39 -65 2 -110 -45 -54 -34 -109 21 -103 25 3 26 1
29 -54 2 -44 0 -58 -11 -58 -17 0 -42 20 -54 44 -10 18 -12 17 -24 -10 -9 -17
-24 -30 -37 -32 -13 -2 -21 -9 -19 -15 2 -7 11 -11 19 -9 28 4 68 -44 68 -83
0 -36 -1 -37 -55 -39 -22 -1 -31 -32 -16 -54 4 -8 27 -16 49 -19 41 -5 42 -6
40 -43 -1 -42 7 -60 28 -60 9 0 14 -10 14 -29 0 -35 31 -61 72 -61 15 0 29 -4
33 -9 3 -5 22 -15 43 -21 20 -7 51 -18 67 -25 17 -7 45 -18 63 -25 17 -7 32
-19 32 -26 0 -21 -38 -26 -130 -15 -47 5 -87 8 -89 6 -7 -7 24 -31 69 -54 79
-40 93 -49 102 -65 7 -13 3 -16 -26 -16 -19 0 -37 -4 -40 -9 -4 -5 -22 -5 -43
-1 -69 16 -52 -7 27 -38 72 -29 292 -88 377 -102 28 -4 57 -11 63 -15 6 -4 30
-9 52 -12 23 -2 49 -8 58 -13 9 -5 50 -12 91 -15 41 -3 103 -10 139 -16 280
-41 1354 -74 1570 -49 47 6 132 15 190 21 57 5 107 13 110 17 3 4 19 14 35 22
27 14 31 21 35 75 3 33 10 69 17 80 6 11 14 40 18 65 4 25 20 64 36 87 23 33
29 52 29 96 0 35 5 59 14 67 24 19 45 99 52 200 4 52 13 112 20 134 8 21 14
63 14 93 0 30 5 64 12 76 12 22 26 133 33 264 2 39 11 85 19 102 18 34 21 71
6 71 -5 0 -10 11 -10 24 0 14 5 28 10 31 6 3 10 19 10 35 0 20 6 31 20 35 28
9 30 56 4 82 -18 19 -18 52 1 59 16 7 20 41 6 62 -13 21 -44 21 -70 1 -32 -26
-51 -24 -51 5 0 36 23 49 70 41 40 -7 41 -7 57 33 10 27 20 39 29 35 10 -4 14
5 14 33 0 25 -3 34 -9 26 -6 -10 -10 -10 -21 2 -14 18 -6 50 12 44 26 -9 72
49 62 76 -5 12 -21 16 -71 16 -61 0 -64 1 -61 23 2 12 10 23 18 23 8 1 20 3
25 4 6 1 15 3 22 4 13 1 45 41 58 71 8 19 9 19 12 -3 6 -29 23 -18 23 15 0 18
-4 24 -15 19 -8 -3 -19 2 -24 12 -7 13 -23 17 -60 17 -28 0 -51 1 -51 2 0 1
14 22 30 46 17 25 30 52 30 61 0 9 5 16 10 16 6 0 10 13 10 29 0 31 -14 41
-61 41 -41 0 -46 22 -14 64 38 50 53 52 71 10 12 -29 18 -34 29 -24 8 7 20 30
26 52 8 32 7 44 -6 64 -18 28 -36 30 -70 8 -20 -13 -31 -14 -56 -5 -45 15 -81
14 -107 -5 -31 -21 -38 -12 -16 23 26 42 56 64 71 51 22 -18 128 7 128 31 0 9
18 19 46 27 26 6 57 19 70 28 13 9 34 16 47 16 19 0 23 5 20 23 -3 20 -8 22
-50 20 -27 -1 -48 3 -48 9 0 6 -6 8 -14 5 -14 -5 -36 10 -36 25 0 4 6 8 13 8
26 0 77 60 77 91 0 30 6 34 34 23 20 -8 20 -33 1 -58 -23 -31 -18 -46 14 -46
21 0 32 6 36 20 3 11 12 20 20 20 18 0 25 60 9 91 -7 14 -26 32 -43 38 -35 15
-43 39 -29 86 15 45 -1 66 -45 58 -20 -3 -52 3 -85 16 -42 17 -57 19 -74 10
-27 -15 -87 -4 -103 18 -18 24 -10 33 29 33 23 0 41 9 61 30 l29 30 27 -30
c36 -39 70 -39 110 0 26 24 35 28 52 19 13 -8 16 -13 8 -18 -7 -5 -2 -12 15
-20 33 -14 59 4 67 48 3 16 9 40 13 55 5 22 2 28 -22 37 -16 7 -33 11 -39 9
-5 -2 -35 -7 -65 -11 -30 -5 -71 -11 -91 -15 -20 -3 -45 -1 -55 4 -14 7 -36 5
-77 -8 -78 -24 -97 -43 -97 -95 0 -56 -32 -85 -95 -85 -46 0 -60 14 -25 25 38
12 80 56 80 83 0 63 -8 72 -64 71 -94 -2 -100 -6 -111 -82 -11 -73 -24 -89
-83 -102 -32 -7 -62 6 -62 27 0 5 20 17 45 28 32 14 49 29 65 59 24 49 24 43
1 70 -15 17 -31 23 -64 23 -62 0 -125 -19 -137 -42 -13 -24 -13 -97 0 -105 18
-11 10 -25 -14 -25 -32 0 -71 -47 -55 -66 19 -23 6 -117 -18 -141 -33 -33 -55
-42 -81 -32 l-23 9 37 67 c20 38 41 72 46 78 5 5 -8 26 -32 50 -39 39 -40 40
-103 37 -48 -3 -71 -9 -93 -27 -27 -22 -29 -27 -30 -100 0 -77 -1 -77 -40
-111 -43 -37 -65 -42 -84 -19 -10 12 -5 29 29 94 45 87 52 134 22 151 -31 16
-88 12 -132 -11 -26 -13 -50 -18 -67 -14 -27 5 -27 5 -29 -53 l-2 -58 60 4 61
5 -4 -29 c-4 -42 -42 -65 -103 -63 -33 2 -65 -5 -95 -19 -42 -20 -46 -20 -80
-4 -43 20 -112 21 -134 3 -19 -16 -21 -54 -3 -69 6 -6 54 -13 104 -17 l92 -8
36 32 c35 30 68 40 79 23 3 -5 -1 -29 -9 -54 -14 -48 -12 -60 10 -52 7 3 16 0
20 -5 3 -6 11 -9 16 -6 5 4 16 -1 25 -9 8 -9 24 -16 35 -16 10 0 19 -4 19 -10
0 -5 -11 -10 -24 -10 -14 0 -28 -5 -31 -11 -4 -6 -32 -9 -65 -8 -58 2 -91 -10
-90 -35 1 -6 9 -26 18 -45 14 -29 23 -35 57 -38 22 -2 42 -9 46 -14 3 -6 19
-9 34 -7 22 2 36 15 58 51 27 44 28 49 13 66 -24 27 -20 37 28 70 24 17 54 45
65 63 34 53 45 65 69 72 20 7 22 4 22 -26 0 -62 -30 -126 -74 -155 -50 -34
-57 -43 -46 -62 4 -8 4 -25 -1 -37 -4 -13 -6 -32 -4 -43 3 -15 -4 -25 -24 -36
-33 -17 -41 -33 -41 -83 0 -44 8 -57 38 -66 12 -4 22 -12 22 -17 0 -18 55 -9
68 11 7 11 22 20 35 20 13 0 39 16 61 39 37 38 41 61 10 61 -23 0 -18 57 6 63
31 8 65 92 51 124 -15 32 -14 53 3 53 17 0 89 77 110 118 16 31 47 49 66 37
15 -9 12 -31 -5 -45 -8 -7 -17 -28 -21 -47 -4 -22 -23 -52 -50 -80 -43 -43
-44 -47 -44 -109 0 -59 -2 -65 -30 -85 -27 -21 -29 -27 -28 -83 1 -79 -5 -92
-63 -121 -38 -20 -53 -23 -74 -15 -14 5 -25 16 -25 25 0 15 -23 15 -166 0 -59
-6 -114 -41 -114 -71 0 -13 -5 -33 -12 -43 -9 -15 -9 -23 1 -35 15 -18 38 -21
43 -6 2 6 16 6 41 -1 37 -10 39 -9 73 27 19 21 34 41 34 46 0 7 52 38 63 38
12 0 15 -35 7 -85 -7 -41 -16 -61 -37 -80 -53 -46 -122 -40 -109 10 5 20 2 21
-62 18 -53 -2 -80 -9 -129 -35 l-62 -32 -23 21 c-32 29 -187 43 -223 19 -31
-21 -40 -20 -73 4 -15 10 -56 24 -91 29 -35 6 -66 13 -69 15 -2 3 -23 -6 -46
-19 l-42 -25 -34 25 c-47 33 -166 46 -201 21 -32 -22 -54 -20 -78 6 -16 17
-33 22 -80 23 -33 1 -66 7 -73 13 -11 8 -17 6 -26 -9 -16 -25 -57 -24 -82 1
-14 14 -28 18 -44 14 -25 -6 -64 10 -81 33 -13 18 -65 1 -65 -21 0 -34 -57
-28 -65 8 -7 31 -1 84 10 95 18 17 94 39 120 34 29 -6 33 11 11 43 -8 11 -16
34 -18 50 -2 23 1 29 17 29 25 0 42 11 55 35 9 16 5 22 -19 35 -17 8 -39 15
-51 15 -18 0 -19 3 -8 20 15 24 10 29 -42 41 -51 11 -70 0 -70 -42 0 -45 -38
-36 -71 17 -17 28 -27 34 -54 34 -22 0 -38 6 -44 18 -8 14 -10 15 -14 2 -3 -8
-10 -30 -16 -49 -8 -25 -8 -37 3 -52 7 -10 16 -16 20 -12 8 9 -9 -41 -26 -74
-7 -14 -21 -23 -35 -23 -19 0 -23 5 -23 29 0 15 9 40 20 54 11 14 20 27 20 30
0 3 -13 19 -30 35 -16 17 -30 37 -30 46 0 8 -9 20 -21 26 -27 15 -14 30 62 70
66 34 89 30 89 -16 0 -22 3 -23 48 -17 26 3 52 9 57 13 6 5 26 11 46 15 26 5
39 2 48 -9 10 -12 32 -16 81 -16 78 0 103 15 71 44 -21 19 -87 40 -100 31 -5
-3 -11 -1 -13 3 -1 5 -18 12 -36 15 -25 5 -36 2 -49 -13 -23 -27 -48 -25 -71
5 -11 14 -25 25 -31 25 -6 0 -11 9 -11 21 0 11 4 18 8 15 8 -5 11 7 13 45 0 8
24 25 55 39 66 28 71 34 44 57 -11 10 -20 25 -20 34 0 31 -12 49 -32 49 -11 0
-28 5 -39 10 -11 6 -19 7 -19 2 0 -6 -8 -12 -19 -15 -14 -3 -19 -16 -23 -54
-3 -27 -13 -65 -23 -84 -10 -19 -27 -52 -38 -74 -23 -45 -46 -75 -58 -75 -16
0 -49 44 -49 66 0 15 21 41 60 77 l60 54 -19 24 c-10 13 -21 45 -25 71 -4 28
-14 52 -24 58 -16 9 -16 9 1 10 10 0 36 9 58 21 37 18 40 23 34 47 -4 15 -8
44 -9 65 -1 21 -7 42 -13 48 -19 19 -3 43 38 61 41 18 48 33 25 63 -10 14 -30
20 -75 23 -34 2 -64 8 -67 13 -10 16 -23 9 -37 -18z m2756 -415 c25 -39 -22
-98 -82 -102 -35 -2 -32 6 19 77 35 48 46 53 63 25z m361 16 c23 -9 20 -47 -6
-71 -49 -44 -97 -36 -61 11 10 13 25 33 33 45 8 11 15 21 16 21 1 0 9 -3 18
-6z m-172 -33 c2 -16 -1 -35 -6 -43 -13 -17 -45 -30 -57 -23 -16 11 29 95 51
95 4 0 10 -13 12 -29z m311 7 c-8 -32 -33 -58 -54 -58 -16 0 -17 4 -8 27 14
38 28 53 49 53 14 0 17 -6 13 -22z m-516 -198 c-4 -16 -16 -50 -27 -74 -16
-37 -29 -49 -74 -70 -30 -14 -58 -31 -62 -37 -3 -6 2 -29 12 -50 13 -30 15
-47 8 -66 -13 -36 -56 -67 -83 -58 -29 9 -26 39 8 83 31 39 39 74 26 106 -7
15 -2 24 20 40 15 12 58 51 94 88 36 37 70 68 75 68 5 0 6 -13 3 -30z m402
-41 c1 -13 8 -27 14 -31 6 -3 -11 -9 -37 -13 -26 -4 -50 -5 -53 -1 -9 9 47 78
60 73 7 -2 14 -14 16 -28z m-181 -7 c-4 -22 -92 -75 -115 -69 -17 5 -17 5 2
11 11 4 36 24 55 45 35 37 64 43 58 13z m-3030 -40 c2 -13 -3 -29 -11 -35 -8
-7 -17 -34 -21 -60 -7 -58 -12 -67 -35 -67 -12 0 -24 15 -35 45 -10 25 -24 46
-32 46 -8 1 -19 2 -26 3 -6 0 -13 7 -16 15 -3 8 0 11 7 7 7 -5 11 1 11 13 0
15 7 21 23 21 12 0 40 9 62 20 50 23 69 21 73 -8z m2882 -146 c0 -7 3 -27 6
-44 6 -27 2 -34 -36 -61 -33 -24 -46 -28 -61 -21 -23 13 -16 34 16 48 14 7 27
23 31 39 3 15 7 34 10 41 5 16 34 15 34 -2z m-2880 -75 c0 -6 -5 -13 -11 -16
-5 -4 -14 -18 -19 -31 -11 -27 -45 -32 -54 -8 -8 22 -9 21 16 44 22 20 68 28
68 11z m377 -81 c-19 -47 -50 -70 -63 -48 -13 20 -14 73 -1 89 23 30 50 39 68
23 16 -14 15 -19 -4 -64z m2259 -42 c-3 -13 -6 -30 -6 -39 0 -41 -76 -78 -115
-57 -15 9 -11 17 36 64 57 57 96 72 85 32z m424 1 c7 -11 9 -27 6 -34 -11 -29
-117 -67 -130 -47 -3 5 9 19 27 32 18 13 41 34 51 47 24 28 32 29 46 2z m-188
-14 c7 -35 -16 -63 -58 -71 -56 -10 -60 7 -13 54 48 48 65 52 71 17z m-2650
-50 c-2 -11 -13 -32 -23 -46 -10 -15 -19 -33 -19 -41 0 -8 -6 -22 -13 -31 -11
-16 -14 -16 -35 -2 -26 19 -29 53 -7 95 18 36 42 51 75 47 19 -1 24 -7 22 -22z
m2888 -134 c0 -21 -6 -43 -12 -48 -19 -13 -89 -36 -95 -30 -2 3 12 23 31 45
20 22 36 44 36 49 0 14 22 33 32 27 4 -3 8 -22 8 -43z m-678 22 c1 -10 2 -42
2 -70 1 -52 1 -53 -45 -78 -82 -44 -123 -22 -73 39 14 17 39 52 55 79 29 48
58 62 61 30z m262 -10 c3 -16 4 -43 2 -62 -4 -42 -53 -84 -93 -79 -40 4 -41
38 -2 63 30 19 51 49 63 88 8 26 24 21 30 -10z m226 -23 c23 -44 -15 -90 -75
-90 -40 0 -41 21 -2 53 21 16 37 35 37 43 0 21 28 17 40 -6z m-2205 -96 c36
-15 37 -17 30 -52 -4 -20 -9 -39 -12 -42 -2 -3 -51 -7 -109 -8 -86 -3 -105 -1
-110 11 -5 15 27 57 45 57 5 0 11 7 15 15 13 34 82 44 141 19z m-285 -16 c0
-9 3 -24 7 -34 6 -15 1 -17 -47 -11 -60 7 -63 9 -55 29 13 33 95 47 95 16z
m606 -5 c47 -22 58 -53 19 -53 -14 0 -36 -10 -48 -24 -12 -13 -37 -31 -55 -40
-28 -14 -39 -15 -70 -5 -62 19 -84 37 -76 62 8 28 43 63 75 77 32 13 108 5
155 -17z m347 -43 c9 -13 22 -18 37 -15 88 17 168 15 240 -5 41 -11 102 -22
135 -24 62 -4 147 -17 225 -34 25 -6 50 -7 55 -2 14 11 132 -3 147 -18 9 -9
-6 -12 -67 -13 -44 -1 -83 -1 -86 -1 -3 1 -53 2 -110 2 -97 2 -222 20 -236 34
-4 3 -17 -3 -29 -15 -18 -17 -30 -20 -56 -15 -18 4 -69 9 -113 12 -44 3 -87 8
-95 11 -8 3 -79 5 -156 4 -134 -3 -144 -1 -178 21 -44 28 -46 43 -6 34 23 -4
32 -2 37 10 11 28 56 39 151 36 77 -3 94 -7 105 -22z m1008 -91 c56 -19 57
-29 4 -29 -54 0 -81 11 -71 29 9 14 24 14 67 0z m-1705 -47 c23 -13 -1 -32
-42 -34 -48 -1 -87 19 -70 38 11 12 87 10 112 -4z m164 -23 c0 -8 14 -10 39
-6 41 5 87 -15 76 -34 -6 -9 -165 -13 -165 -5 0 3 4 16 10 30 9 26 40 37 40
15z m428 -55 c57 -7 55 -36 -2 -45 -110 -18 -269 29 -175 51 25 6 100 4 177
-6z m310 -33 c8 -24 -29 -41 -88 -41 -60 0 -95 16 -85 40 8 21 166 22 173 1z
m-905 -30 c5 -5 11 -21 12 -35 3 -21 -2 -27 -23 -33 -15 -3 -27 -2 -29 4 -3 7
-14 6 -33 -4 -37 -18 -46 -13 -55 33 -4 26 -2 40 7 46 16 11 108 2 121 -11z
m1527 -1 c-30 -7 -86 0 -71 9 5 4 29 5 53 2 36 -4 39 -5 18 -11z m-310 6 c0
-3 -4 -8 -10 -11 -5 -3 -10 -1 -10 4 0 6 5 11 10 11 6 0 10 -2 10 -4z m-130
-26 c-8 -5 -19 -10 -25 -10 -5 0 -3 5 5 10 8 5 20 10 25 10 6 0 3 -5 -5 -10z
m-902 -28 c2 -7 -3 -12 -11 -12 -7 0 -22 -9 -32 -20 -21 -23 -35 -12 -35 28 0
21 4 23 37 20 20 -2 38 -9 41 -16z m447 -45 c40 -20 40 -20 15 -29 -30 -12
-230 -2 -244 12 -15 15 11 38 47 43 57 7 141 -5 182 -26z m253 -39 c23 -6 42
-14 42 -18 0 -17 -83 -20 -136 -4 -54 15 -55 17 -33 29 25 13 55 11 127 -7z
m-886 -64 c4 -3 8 -13 8 -22 0 -24 -112 -25 -136 0 -29 29 -8 41 59 33 34 -3
65 -9 69 -11z m196 -35 c-5 -16 -90 -17 -96 -1 -2 8 11 12 48 12 34 0 50 -4
48 -11z m302 -36 c-1 -19 -29 -43 -51 -43 -26 0 -72 27 -65 38 6 10 116 14
116 5z m-760 -103 c0 -11 -4 -20 -10 -20 -5 0 -10 2 -10 4 0 2 -3 11 -6 20 -4
11 -1 16 10 16 9 0 16 -8 16 -20z m256 9 c4 -7 -3 -19 -16 -29 -13 -9 -20 -22
-16 -28 13 -21 -82 -28 -101 -8 -12 11 8 36 44 55 43 23 78 27 89 10z m228
-15 c42 -42 6 -68 -88 -63 -64 4 -71 11 -39 41 24 23 41 29 100 37 6 0 19 -6
27 -15z m302 -10 c-3 -9 -6 -19 -6 -24 0 -5 -9 -12 -20 -15 -12 -4 -29 -15
-39 -26 -15 -16 -29 -20 -67 -17 -42 3 -49 6 -52 25 -3 17 3 26 22 33 14 5 26
16 26 25 0 12 14 15 71 15 61 0 70 -2 65 -16z m484 0 c0 -9 11 -27 25 -40 56
-52 24 -77 -98 -78 -82 -1 -92 1 -95 18 -5 22 17 66 32 66 6 0 34 11 61 25 59
29 75 31 75 9z m-230 -20 c11 -29 6 -44 -15 -44 -8 0 -18 -6 -22 -14 -5 -8
-32 -17 -63 -20 -60 -7 -91 4 -73 26 6 7 13 25 17 40 7 30 20 35 94 37 48 1
53 -1 62 -25z m-1420 -86 c0 -24 -47 -43 -66 -27 -22 18 -17 55 9 66 26 13 57
-8 57 -39z m1889 20 c-2 -33 -16 -44 -60 -47 -64 -3 -76 31 -19 52 29 11 80 7
79 -5z m158 -14 c5 -15 -20 -24 -37 -14 -7 4 -9 13 -5 19 8 14 37 11 42 -5z
m-1864 -61 c-7 -2 -21 -2 -30 0 -10 3 -4 5 12 5 17 0 24 -2 18 -5z m211 -19
c24 -9 9 -24 -25 -24 -32 0 -40 16 -11 23 9 3 18 5 19 6 1 0 8 -2 17 -5z m211
-4 c-3 -5 -12 -10 -18 -10 -7 0 -6 4 3 10 19 12 23 12 15 0z m283 -17 c2 -13
0 -24 -5 -24 -45 -7 -103 -6 -103 1 0 6 5 10 11 10 5 0 8 4 4 9 -9 15 26 31
60 28 23 -1 31 -8 33 -24z m260 5 c7 -7 12 -20 12 -30 0 -16 -9 -18 -70 -18
-63 0 -70 2 -70 20 0 20 13 26 75 33 17 2 32 5 36 6 3 0 10 -4 17 -11z m261
-4 c31 -6 44 -24 18 -24 -8 0 -27 -6 -43 -14 -33 -17 -84 -10 -84 10 0 26 52
39 109 28z m-1466 -22 c20 -22 13 -32 -19 -32 -26 0 -38 14 -30 35 7 20 30 19
49 -3z m1702 9 c3 -5 1 -12 -5 -16 -6 -4 -8 -10 -5 -15 7 -12 -35 -23 -66 -18
-32 4 -36 32 -7 46 29 13 75 15 83 3z m-1667 -104 c7 -7 13 -29 14 -48 3 -32
1 -34 -28 -37 -58 -6 -81 50 -35 85 21 16 36 16 49 0z m1582 -61 c0 -8 -4 -18
-10 -21 -5 -3 -10 3 -10 14 0 12 5 21 10 21 6 0 10 -6 10 -14z m-690 -112 c0
-8 -4 -12 -10 -9 -5 3 -10 0 -10 -8 0 -8 -7 -18 -16 -21 -26 -10 -134 -7 -134
4 0 6 5 10 10 10 6 0 19 9 30 20 26 26 130 30 130 4z m220 -14 c19 -10 19 -11
-2 -35 -18 -21 -30 -25 -80 -25 -64 0 -75 13 -38 50 22 22 87 27 120 10z m207
-28 c8 -33 -7 -44 -58 -40 -34 2 -45 7 -48 22 -4 27 26 47 66 44 26 -2 35 -8
40 -26z m201 12 c25 -7 29 -35 8 -53 -8 -7 -37 -11 -68 -9 -47 3 -53 5 -50 23
6 39 51 54 110 39z m266 -34 c16 -16 -6 -26 -67 -33 -51 -7 -77 3 -77 28 0 8
8 16 18 19 26 7 114 -2 126 -14z m181 -15 c0 -16 -8 -21 -37 -23 -32 -3 -38 0
-38 16 0 27 10 33 45 30 22 -2 30 -8 30 -23z m-1985 -160 c0 -29 -1 -29 -34
-14 -30 14 -24 39 10 39 19 0 24 -5 24 -25z"/>
<path d="M12790 6073 c-36 -5 -50 -17 -50 -43 0 -13 14 -16 70 -15 64 0 71 2
76 22 11 42 -3 47 -96 36z"/>
<path d="M13062 6070 c-43 -10 -55 -22 -50 -51 3 -21 11 -25 60 -33 67 -10 89
4 92 57 1 30 -1 32 -34 34 -19 1 -50 -2 -68 -7z"/>
<path d="M12436 6054 c-3 -8 -2 -15 2 -18 10 -6 26 6 29 20 3 15 -25 13 -31
-2z"/>
<path d="M13298 6058 c-31 -24 -32 -62 -4 -93 23 -25 29 -27 52 -17 14 7 34
12 44 12 24 0 37 42 24 79 -8 22 -16 26 -54 29 -26 2 -52 -3 -62 -10z"/>
<path d="M13740 6030 c-21 -30 -21 -32 -5 -51 23 -24 66 -24 96 0 l24 19 -21
29 c-30 41 -66 42 -94 3z"/>
<path d="M10090 6035 c0 -20 28 -31 43 -16 8 8 7 11 -6 11 -9 0 -17 5 -17 10
0 6 -4 10 -10 10 -5 0 -10 -7 -10 -15z"/>
<path d="M10850 6024 c-6 -14 -10 -31 -10 -38 0 -17 21 -36 42 -36 33 0 116
21 134 35 30 22 1 45 -57 45 -26 0 -59 4 -74 10 -23 9 -27 7 -35 -16z"/>
<path d="M13539 6023 c-20 -53 -22 -80 -5 -86 8 -3 18 -2 21 3 4 6 14 6 27 -1
18 -10 24 -8 35 7 20 28 27 65 16 83 -6 9 -26 17 -47 19 -32 3 -37 0 -47 -25z"/>
<path d="M11115 5996 c-9 -14 -14 -30 -10 -36 3 -5 37 -10 74 -10 54 0 74 4
92 20 21 17 22 21 9 30 -8 5 -35 10 -60 10 -25 0 -55 3 -67 6 -16 4 -26 -1
-38 -20z"/>
<path d="M13925 6011 c-10 -17 31 -33 44 -17 6 7 8 16 4 19 -10 10 -41 8 -48
-2z"/>
<path d="M11407 5974 c-37 -20 -31 -25 36 -31 55 -5 108 11 91 27 -19 16 -99
19 -127 4z"/>
<path d="M12343 5908 c-28 -31 -1 -48 77 -48 73 0 97 13 85 49 -5 17 -14 19
-76 18 -53 -2 -74 -6 -86 -19z"/>
<path d="M12644 5916 c-38 -17 -45 -26 -38 -53 5 -18 15 -22 65 -25 54 -3 61
-1 79 24 11 15 20 36 20 48 0 17 -6 20 -47 20 -27 -1 -62 -7 -79 -14z"/>
<path d="M12895 5918 c-27 -6 -52 -12 -53 -14 -6 -4 -9 -78 -4 -91 2 -8 21
-13 44 -13 22 0 48 -5 58 -10 41 -22 126 60 118 114 -3 18 -10 21 -58 23 -30
0 -77 -4 -105 -9z"/>
<path d="M12157 5913 c-32 -3 -47 -8 -44 -16 5 -15 88 -26 117 -15 28 10 26
39 -2 36 -13 -1 -45 -3 -71 -5z"/>
<path d="M10808 5862 c-30 -34 -36 -55 -25 -79 9 -20 17 -23 68 -23 64 0 109
13 109 32 0 21 -53 68 -78 68 -13 0 -31 4 -41 10 -14 7 -22 5 -33 -8z"/>
<path d="M10155 5840 c-3 -5 -2 -10 4 -10 5 0 13 5 16 10 3 6 2 10 -4 10 -5 0
-13 -4 -16 -10z"/>
<path d="M11031 5808 c-11 -30 -2 -38 45 -44 54 -7 118 8 122 29 4 18 -9 22
-101 32 -53 6 -58 5 -66 -17z"/>
<path d="M11283 5813 c-7 -2 -13 -13 -13 -24 0 -17 8 -19 84 -19 92 0 116 5
116 25 0 7 -7 16 -16 19 -19 7 -153 7 -171 -1z"/>
<path d="M11568 5806 c-31 -23 -22 -46 17 -46 21 0 44 -8 55 -18 28 -26 116
-28 129 -3 8 14 6 22 -7 33 -37 33 -166 55 -194 34z"/>
<path d="M11849 5766 c-28 -29 9 -62 81 -71 30 -4 61 -12 67 -17 9 -7 15 -6
19 5 3 9 22 26 41 37 31 18 34 23 22 35 -17 16 -215 25 -230 11z"/>
<path d="M12197 5722 c-54 -24 -58 -28 -55 -56 l3 -31 84 -6 c78 -6 86 -5 103
15 9 11 17 26 18 33 0 6 12 21 26 32 37 29 22 41 -54 40 -49 -1 -83 -8 -125
-27z"/>
<path d="M10347 5683 c-3 -16 -5 -62 -4 -103 l2 -75 29 3 c15 2 47 15 70 30
22 14 42 27 44 28 2 1 -4 19 -12 39 -9 21 -16 48 -16 60 0 26 -18 36 -48 28
-11 -2 -23 0 -26 6 -13 20 -34 11 -39 -16z"/>
<path d="M7175 5686 c-34 -15 -82 -67 -96 -103 -10 -28 -17 -61 -24 -127 -7
-56 12 -86 55 -86 26 0 77 29 53 30 -16 0 -18 126 -3 164 22 58 30 25 25 -101
-6 -152 -7 -163 -18 -163 -4 0 -6 -4 -3 -9 3 -4 -4 -32 -15 -62 -11 -30 -25
-68 -30 -85 -5 -18 -18 -43 -29 -57 -11 -14 -23 -34 -27 -45 -18 -44 -133
-171 -193 -212 -19 -13 -37 -27 -40 -30 -3 -4 -32 -19 -65 -35 l-59 -28 22
-17 c12 -10 22 -21 22 -23 0 -3 -21 -5 -47 -4 -29 1 -48 -3 -50 -10 -3 -7 -11
-13 -18 -13 -7 0 -28 -17 -47 -38 -18 -21 -41 -42 -51 -45 -15 -6 -18 -15 -14
-61 3 -30 8 -59 11 -65 4 -5 2 -12 -4 -16 -6 -4 -8 -10 -5 -14 2 -5 -12 -25
-33 -46 -42 -42 -72 -61 -72 -45 0 19 -32 10 -37 -10 -3 -11 -11 -20 -18 -20
-7 0 -16 -6 -18 -12 -3 -7 -6 -5 -6 6 -1 17 -3 16 -20 -5 -22 -29 -93 -58 -99
-40 -7 20 -126 11 -123 -10 0 -2 -2 -14 -5 -26 -7 -25 -20 -30 -27 -10 -3 6
-6 2 -6 -10 -1 -12 -5 -24 -10 -27 -5 -3 -7 -16 -4 -28 7 -25 -19 -48 -55 -48
-19 0 -22 -4 -17 -20 5 -16 2 -20 -19 -20 -33 0 -32 6 4 54 17 22 30 48 30 58
0 30 -34 6 -64 -45 -25 -44 -26 -44 -93 -51 -107 -11 -109 -12 -105 -51 3 -21
11 -36 21 -38 9 -3 -22 -3 -69 -1 -62 2 -93 -1 -117 -13 -56 -26 -58 -43 -17
-124 20 -41 39 -67 43 -61 4 7 16 0 31 -20 42 -53 93 -98 127 -110 17 -6 34
-21 37 -32 4 -16 8 -18 18 -8 16 16 23 15 44 -5 15 -15 15 -17 1 -22 -14 -5
-11 -13 14 -51 21 -33 43 -51 78 -65 26 -11 62 -35 80 -52 18 -18 39 -33 46
-33 8 0 30 -11 51 -25 20 -13 51 -30 70 -37 19 -6 34 -16 34 -20 0 -4 15 -8
34 -8 19 0 38 -4 41 -10 3 -5 18 -7 33 -4 15 3 41 0 57 -7 17 -7 39 -13 50
-13 13 -1 19 -7 17 -18 -2 -12 6 -19 25 -24 15 -3 33 -7 40 -9 7 -2 15 0 18 5
3 5 28 6 55 3 33 -3 55 -1 65 7 13 10 15 9 16 -11 1 -13 1 -27 0 -31 -2 -12
11 -9 39 7 36 20 64 19 56 -2 -4 -9 -14 -53 -22 -97 -8 -45 -19 -103 -25 -131
-11 -53 -49 -259 -53 -285 -1 -9 -5 -21 -10 -28 -4 -6 -4 -17 -1 -22 11 -17
-14 -39 -51 -46 -28 -5 -41 0 -83 30 -27 20 -82 73 -122 118 -41 45 -92 100
-114 122 -22 23 -77 82 -123 132 -46 49 -95 97 -110 106 -30 17 -82 17 -127
-1 -16 -6 -36 -14 -42 -16 -7 -2 -13 -9 -13 -14 0 -5 -10 -12 -22 -15 -70 -20
-170 -228 -170 -352 0 -20 -6 -38 -13 -40 -7 -3 -16 -26 -20 -51 -4 -25 -11
-53 -16 -62 -13 -25 -39 -110 -39 -131 0 -10 -4 -21 -9 -25 -6 -3 -13 -27 -17
-53 -4 -26 -18 -75 -30 -110 -26 -69 -28 -76 -15 -68 4 3 6 -6 3 -19 -2 -14
-9 -22 -14 -19 -6 4 -8 -2 -4 -14 4 -13 -1 -39 -14 -66 -11 -25 -20 -54 -20
-65 0 -21 -120 -151 -139 -151 -6 0 -8 -6 -5 -14 3 -8 1 -17 -5 -21 -6 -3 -11
1 -11 9 0 10 -6 13 -15 10 -8 -4 -12 -10 -9 -15 5 -8 -9 -13 -28 -10 -5 0 -8
-3 -8 -7 0 -10 -87 -72 -102 -72 -6 0 -23 -13 -38 -28 -14 -15 -48 -41 -76
-56 -27 -16 -57 -36 -67 -44 -21 -19 -53 -38 -89 -54 -16 -7 -28 -16 -28 -20
0 -4 -6 -8 -14 -8 -8 0 -16 -7 -20 -15 -3 -8 -10 -15 -15 -15 -5 0 -52 -29
-104 -63 -103 -69 -118 -74 -322 -100 -60 -7 -119 -10 -130 -7 -21 8 -65 -7
-65 -22 0 -4 -6 -8 -14 -8 -8 0 -24 -8 -36 -18 -21 -17 -21 -19 -4 -32 22 -19
223 -20 349 -1 84 13 196 52 203 72 2 5 8 9 14 9 11 0 141 91 146 103 2 4 20
14 39 22 20 8 43 23 52 33 18 19 64 51 102 71 15 7 38 24 52 37 14 13 30 24
34 24 4 0 21 11 37 25 16 13 33 22 37 19 5 -3 9 0 9 6 0 15 26 41 33 34 5 -6
111 62 138 88 8 7 27 21 42 31 15 10 25 23 21 29 -5 7 -2 8 6 3 14 -8 100 77
100 100 0 7 7 18 15 25 19 16 69 176 59 192 -4 6 -3 8 2 5 6 -3 16 15 23 41 7
26 28 97 46 157 18 61 46 151 60 200 108 364 136 428 201 458 32 16 74 13 74
-5 0 -13 132 -138 146 -138 7 0 14 -7 18 -15 3 -8 12 -15 21 -15 8 0 15 -6 15
-14 0 -13 116 -126 129 -126 13 0 52 -47 55 -66 1 -9 11 -19 22 -20 10 -2 26
-11 34 -21 8 -10 34 -31 56 -46 86 -58 179 -27 227 75 15 31 45 144 72 273 26
121 48 221 50 223 1 1 21 -19 44 -46 56 -67 150 -126 241 -151 97 -27 102 -26
60 10 -19 17 -26 26 -15 20 11 -5 29 -18 40 -28 11 -10 33 -29 50 -41 l30 -24
-3 -211 c-1 -117 2 -300 7 -407 5 -107 12 -310 15 -450 3 -140 9 -282 14 -315
5 -33 8 -63 6 -66 -2 -4 -6 -26 -8 -50 -6 -55 -35 -170 -47 -185 -5 -6 -6 -25
-3 -41 4 -19 0 -42 -9 -60 -9 -16 -19 -54 -23 -84 -4 -30 -13 -66 -20 -81 -8
-15 -14 -41 -14 -58 0 -17 -5 -40 -10 -51 -6 -10 -18 -69 -26 -131 l-16 -113
-48 -51 c-26 -27 -51 -61 -55 -75 -4 -13 -15 -32 -23 -42 -15 -17 -13 -21 22
-53 20 -18 41 -34 45 -34 10 0 53 48 74 82 9 15 17 41 17 58 0 17 4 39 9 48
10 20 146 542 199 767 34 145 35 157 36 355 1 240 -12 864 -19 894 -3 12 1 55
9 96 l13 75 8 -43 c4 -23 12 -45 16 -48 5 -3 9 -14 9 -25 0 -10 4 -19 10 -19
5 0 12 -17 16 -37 4 -21 13 -44 21 -51 7 -8 11 -23 8 -33 -4 -10 -2 -19 2 -19
11 0 43 -64 43 -86 0 -10 6 -13 19 -9 12 4 21 0 25 -11 6 -15 4 -15 -10 -3
-15 12 -16 11 -9 -11 25 -84 88 -49 103 56 l7 48 53 0 c48 1 68 -7 40 -16 -6
-2 -8 -10 -4 -16 7 -12 116 -18 116 -6 0 3 -10 15 -22 25 l-23 20 35 -7 c19
-3 43 -13 53 -22 14 -12 17 -13 17 -1 1 11 3 11 13 -2 15 -20 99 -41 130 -33
18 4 28 -1 40 -20 15 -22 20 -24 46 -15 17 6 35 17 42 25 6 8 23 14 36 14 23
0 25 -3 20 -30 -6 -29 -5 -30 28 -30 18 0 37 -5 40 -10 4 -6 10 -8 15 -5 5 3
11 -3 14 -12 12 -38 164 -81 318 -90 107 -6 108 -6 117 18 12 31 12 57 12
-336 0 -187 4 -381 9 -432 10 -90 40 -180 71 -213 8 -8 22 -28 32 -43 10 -15
22 -25 27 -22 6 4 10 2 10 -4 0 -12 126 -115 133 -110 3 2 15 -8 27 -23 12
-16 30 -28 41 -28 32 0 59 36 59 78 -1 36 -4 39 -98 102 -103 69 -153 127
-171 198 -5 21 -12 217 -15 437 l-6 401 72 23 c131 42 240 107 351 210 85 79
105 91 150 91 47 0 93 23 100 49 5 22 -13 34 -34 20 -8 -5 -24 -9 -36 -9 -12
0 -28 -7 -36 -15 -8 -8 -17 -11 -21 -8 -7 7 18 49 49 80 22 23 40 56 70 130
13 31 16 57 11 100 -3 32 -10 103 -15 158 -11 123 -45 239 -95 328 -42 77
-142 187 -226 252 -75 58 -222 130 -293 145 -32 6 -61 18 -63 25 -3 7 4 36 16
63 41 95 103 89 230 -23 36 -32 186 -177 334 -324 183 -181 275 -279 287 -306
21 -46 52 -259 74 -490 8 -88 23 -218 34 -290 11 -71 27 -202 36 -289 18 -175
30 -212 89 -264 46 -40 107 -67 229 -99 70 -19 96 -30 93 -40 -4 -10 6 -13 40
-13 39 0 46 3 54 26 6 14 10 36 10 49 0 26 3 25 -168 71 -100 26 -177 60 -204
90 -29 33 -46 136 -68 399 -16 180 -96 777 -115 849 -9 32 -33 84 -53 115 -38
58 -441 465 -592 598 -121 107 -182 134 -252 110 -87 -31 -132 -95 -198 -287
-27 -78 -51 -145 -54 -147 -11 -11 -16 38 -6 57 11 21 5 44 -10 35 -5 -3 -16
19 -25 47 -26 81 -73 175 -91 182 -24 9 -26 8 -15 -12 6 -11 6 -23 2 -28 -5
-5 0 -34 10 -64 23 -67 32 -123 19 -115 -6 4 -10 1 -10 -4 0 -6 4 -11 9 -11 5
0 12 -18 16 -40 4 -22 11 -40 16 -40 13 0 11 -44 -2 -57 -13 -13 3 -34 33 -46
23 -8 12 -38 -10 -30 -11 4 -9 -1 6 -15 13 -11 24 -27 26 -34 1 -7 6 -19 11
-27 5 -10 4 -16 -3 -19 -7 -2 -12 -8 -12 -14 0 -6 7 -7 16 -4 20 8 14 -14 -9
-28 -23 -15 -32 0 -18 30 12 28 6 48 -8 25 -6 -9 -12 -2 -21 25 -7 22 -16 44
-21 50 -5 6 -6 14 -2 17 3 4 -1 15 -11 25 -9 11 -14 26 -11 34 9 22 -26 33
-41 13 -8 -11 -20 -14 -38 -9 -28 7 -36 -12 -15 -33 8 -8 5 -14 -12 -24 -13
-6 -27 -17 -31 -23 -5 -6 -8 -1 -8 13 0 27 50 322 56 333 3 4 -5 25 -16 48
-28 56 -55 54 -81 -5 -11 -25 -17 -49 -14 -54 3 -5 0 -13 -5 -16 -6 -4 -10
-17 -9 -28 2 -12 -3 -32 -9 -45 -7 -12 -12 -28 -11 -35 1 -6 -1 -23 -4 -37 -3
-14 -13 -63 -22 -110 -35 -191 -36 -192 -51 -179 -7 6 -12 14 -10 18 3 4 -20
2 -50 -3 -30 -6 -54 -14 -54 -18 0 -4 5 -8 10 -8 6 0 10 -5 10 -11 0 -8 -4 -8
-12 -1 -7 6 -25 8 -39 5 -20 -4 -28 -13 -33 -35 -5 -25 -10 -29 -33 -27 -16 1
-36 -2 -47 -6 -11 -5 -21 -3 -25 3 -7 11 -24 10 -52 -2 -22 -10 -20 -34 2 -29
10 3 47 -2 82 -11 45 -11 72 -13 89 -7 14 5 31 5 38 1 11 -7 8 -11 -12 -21
-16 -7 -24 -17 -21 -25 4 -11 -4 -13 -42 -8 -41 6 -47 5 -52 -15 -7 -27 -43
-28 -50 -2 -3 13 -17 22 -44 26 -36 6 -39 9 -39 40 0 72 -158 320 -191 299 -5
-3 -9 2 -9 10 0 8 -10 18 -22 22 -13 3 -31 13 -40 22 -10 8 -18 12 -18 7 0 -4
-6 -2 -14 4 -7 6 -21 9 -30 5 -9 -4 -16 -1 -16 6 0 10 -3 10 -15 0 -9 -7 -19
-9 -23 -5 -4 4 -1 10 6 12 21 8 2 23 -29 23 -16 0 -29 5 -29 10 0 6 -9 10 -20
10 -13 0 -18 -5 -14 -15 4 -8 1 -15 -5 -15 -6 0 -11 7 -11 15 0 18 -21 20 -38
3 -9 -9 -12 -9 -12 0 0 10 -5 10 -21 1 -17 -9 -23 -8 -30 2 -7 12 -9 12 -9 0
0 -9 -8 -12 -25 -9 -14 3 -28 1 -31 -3 -3 -5 -32 -9 -64 -9 -32 0 -62 -4 -65
-10 -3 -5 -14 -14 -24 -19 -15 -9 -13 5 16 91 35 107 53 195 53 266 0 33 4 42
18 42 48 -1 75 -56 87 -181 l7 -67 37 -6 c66 -11 63 -13 56 72 -11 131 -23
176 -59 218 -33 38 -35 39 -93 36 l-59 -3 -18 58 c-40 127 -141 293 -168 277
-6 -4 -8 -2 -5 4 8 12 -51 65 -64 56 -5 -3 -23 6 -40 20 -17 14 -37 26 -44 26
-20 0 -29 -20 -16 -33 6 -6 11 -15 11 -19 0 -9 -52 13 -62 27 -5 6 -8 6 -8 -2
0 -7 -15 1 -32 18 -18 16 -38 29 -45 29 -20 0 -15 17 8 34 25 17 79 3 79 -21
0 -9 6 -13 15 -9 8 3 15 1 15 -4 0 -6 8 -10 18 -10 13 0 8 9 -19 33 -19 17
-44 37 -54 42 -24 14 -12 53 18 59 202 39 322 98 458 223 178 166 308 444 310
667 1 83 -15 124 -56 146 -24 13 -28 13 -36 -3 -6 -9 -15 -17 -22 -17 -7 0 -6
4 3 11 12 8 11 10 -5 7 -11 -2 -19 -7 -17 -12 2 -5 -8 -16 -22 -26 -15 -9 -23
-20 -19 -23 3 -4 -1 -7 -10 -7 -28 0 -57 -83 -57 -166 0 -83 10 -95 68 -87
l32 5 0 78 c0 82 11 130 31 130 19 0 5 -192 -21 -284 -21 -74 -62 -164 -105
-231 -16 -25 -60 -74 -151 -169 -54 -56 -272 -156 -341 -156 -13 0 -32 -4 -42
-10 -14 -7 -23 -4 -40 15 -18 22 -32 59 -14 42 9 -10 88 38 163 99 98 79 166
166 233 301 122 242 157 545 69 592 -25 13 -20 13 -57 -3z m-154 -1353 c13
-15 12 -15 -11 -3 -34 17 -36 20 -18 20 9 0 22 -7 29 -17z m689 -912 c-19 -4
-46 -11 -60 -15 l-25 -7 25 15 c14 9 41 15 60 14 l35 0 -35 -7z m1000 -98 c0
-17 -43 -143 -48 -139 -2 3 3 28 12 55 9 27 16 59 16 70 0 12 5 21 10 21 6 0
10 -3 10 -7z m-1140 -48 c0 -2 -9 -9 -20 -15 -12 -6 -20 -7 -20 -1 0 5 8 12
18 14 9 3 18 5 20 6 1 0 2 -1 2 -4z m1210 -20 c-7 -9 -9 -22 -4 -32 4 -10 8
-20 8 -23 1 -3 5 -11 10 -18 12 -19 1 -25 -23 -12 -17 9 -19 15 -11 30 9 16 7
20 -5 20 -23 0 -18 24 8 36 31 16 31 16 17 -1z m-1893 -10 c14 -14 13 -15 -10
-10 -14 4 -35 2 -46 -5 -12 -6 -21 -7 -21 -1 0 7 31 24 58 30 2 1 10 -6 19
-14z m-87 -36 c11 -20 11 -20 -14 -4 -30 20 -32 25 -11 25 8 0 19 -9 25 -21z
m836 9 c4 -7 4 -10 -1 -6 -4 4 -14 3 -22 -3 -13 -11 -19 2 -6 14 10 11 21 8
29 -5z m-801 -64 c9 -15 12 -23 6 -20 -11 7 -35 46 -28 46 3 0 12 -12 22 -26z
m1968 -24 c-3 -11 -7 -20 -9 -20 -2 0 -4 9 -4 20 0 11 4 20 9 20 5 0 7 -9 4
-20z m23 -46 c-3 -8 -1 -14 4 -14 5 0 7 -7 4 -15 -7 -18 -30 -20 -40 -3 -5 8
-2 9 9 5 19 -7 21 1 8 22 -5 7 -15 10 -22 7 -8 -4 -5 -1 5 8 21 17 40 11 32
-10z m-1710 -76 l29 -33 -32 29 c-18 17 -33 31 -33 33 0 8 8 1 36 -29z m1734
15 c0 -5 -5 -15 -10 -23 -8 -12 -10 -11 -10 8 0 12 5 22 10 22 6 0 10 -3 10
-7z m-2780 -47 c0 -3 -4 -8 -10 -11 -5 -3 -10 -1 -10 4 0 6 5 11 10 11 6 0 10
-2 10 -4z m2785 -101 c7 -52 -2 -60 -11 -9 -2 16 -7 40 -10 54 -3 16 -2 21 4
15 5 -5 13 -32 17 -60z m-1447 8 c2 -8 -6 -13 -22 -13 -25 0 -33 10 -19 24 10
10 36 3 41 -11z m162 -113 c0 -5 -7 -7 -15 -4 -8 4 -15 8 -15 10 0 2 7 4 15 4
8 0 15 -4 15 -10z m1297 -12 c-3 -8 -6 -5 -6 6 -1 11 2 17 5 13 3 -3 4 -12 1
-19z m-1286 -35 c0 -16 4 -54 8 -86 4 -35 3 -56 -3 -54 -12 4 -36 84 -36 124
0 17 -6 34 -12 36 -7 3 -1 6 15 6 23 1 27 -3 28 -26z m144 -5 c8 -38 37 -88
78 -135 30 -34 50 -95 41 -125 -4 -14 -17 -18 -59 -18 -61 0 -61 0 -69 99 -3
39 -9 103 -12 141 -5 73 9 98 21 38z m585 -378 c0 -5 -5 -10 -11 -10 -5 0 -7
5 -4 10 3 6 8 10 11 10 2 0 4 -4 4 -10z m-2763 -132 c-3 -8 -6 -5 -6 6 -1 11
2 17 5 13 3 -3 4 -12 1 -19z m3480 -1018 c6 0 13 -4 15 -8 2 -5 29 -21 61 -36
31 -14 57 -31 57 -36 0 -6 7 -10 16 -10 8 0 12 -4 9 -10 -3 -5 3 -10 14 -10
30 0 26 -13 -10 -34 -28 -17 -58 -14 -31 3 9 5 3 8 -15 9 -34 1 -84 19 -82 29
3 19 -3 47 -8 36 -5 -15 -33 -18 -33 -4 0 6 5 13 11 17 8 5 6 10 -5 16 -9 5
-20 6 -26 3 -11 -7 -32 29 -23 39 3 3 1 6 -5 6 -6 0 -9 7 -5 16 5 13 9 12 27
-5 12 -12 27 -21 33 -21z m98 -160 c3 -5 1 -10 -4 -10 -6 0 -11 5 -11 10 0 6
2 10 4 10 3 0 8 -4 11 -10z"/>
<path d="M10996 5633 c-3 -8 -3 -19 0 -24 3 -6 1 -16 -6 -24 -6 -7 -10 -29 -8
-47 2 -27 7 -32 23 -30 11 2 47 4 80 5 33 2 62 6 65 10 3 4 -4 18 -14 32 -15
20 -28 25 -60 25 -45 0 -75 13 -57 24 6 4 11 13 11 21 0 19 -27 26 -34 8z"/>
<path d="M11264 5551 c-7 -8 -4 -61 4 -61 4 -1 38 -3 75 -6 89 -6 113 9 64 41
-29 20 -130 38 -143 26z"/>
<path d="M11454 5518 c-5 -8 0 -9 16 -5 30 8 50 -8 50 -38 0 -22 3 -23 94 -24
74 -1 96 2 107 15 15 18 2 30 -41 39 -14 3 -39 10 -56 15 -43 14 -161 13 -170
-2z"/>
<path d="M11819 5504 c-20 -19 -13 -64 10 -65 51 -4 217 4 221 11 3 4 20 15
38 24 34 17 46 53 15 43 -92 -30 -103 -31 -132 -14 -38 22 -131 23 -152 1z"/>
<path d="M11140 5330 c-8 -5 -10 -10 -4 -10 5 0 20 -9 31 -19 16 -15 37 -20
94 -21 99 -2 99 -2 99 14 0 31 -42 46 -125 46 -44 0 -87 -5 -95 -10z"/>
<path d="M11480 5280 c0 -5 23 -10 50 -10 28 0 50 5 50 10 0 6 -22 10 -50 10
-27 0 -50 -4 -50 -10z"/>
<path d="M11853 5283 c-95 -6 -80 -36 22 -47 72 -7 92 2 76 33 -7 11 -17 20
-24 19 -7 -1 -40 -3 -74 -5z"/>
<path d="M12061 5271 c-6 -11 -11 -24 -11 -30 0 -21 33 -41 68 -42 20 0 46 -4
56 -8 28 -11 98 4 112 23 10 14 7 22 -15 44 -24 25 -34 27 -113 30 -78 3 -87
2 -97 -17z"/>
<path d="M11130 5133 c0 -5 7 -17 15 -27 8 -11 15 -33 15 -48 l0 -28 36 15
c20 8 53 15 73 15 21 0 47 9 61 20 l25 20 -24 20 c-19 17 -38 20 -112 20 -49
0 -89 -3 -89 -7z"/>
<path d="M11394 5125 c-6 -15 20 -65 34 -65 4 0 45 -2 91 -5 63 -3 89 0 105
10 26 19 60 19 75 1 7 -8 31 -16 54 -19 23 -3 65 -9 94 -13 50 -6 52 -6 59 20
12 48 -7 56 -130 56 -63 0 -116 -4 -122 -10 -7 -7 -22 -2 -48 15 -32 22 -48
25 -122 25 -66 0 -86 -3 -90 -15z"/>
<path d="M13846 5118 c-9 -34 -7 -68 4 -68 13 0 24 70 13 81 -7 7 -12 2 -17
-13z"/>
<path d="M12420 5110 c-105 -6 -135 -17 -144 -56 -8 -29 -3 -38 22 -39 9 -1
27 -2 40 -3 12 -1 22 -8 22 -16 0 -9 15 -17 40 -21 37 -6 45 -3 85 30 37 30
45 42 45 70 0 19 -3 35 -7 37 -5 2 -51 1 -103 -2z"/>
<path d="M11990 5095 c-15 -19 -18 -104 -4 -115 14 -12 57 10 73 37 7 13 16
13 57 5 41 -9 52 -8 67 6 26 23 38 48 32 64 -6 16 -212 19 -225 3z"/>
<path d="M11101 4974 c-11 -15 -18 -30 -16 -34 10 -16 114 -23 145 -10 41 17
38 38 -7 45 -21 4 -48 10 -61 16 -33 13 -38 12 -61 -17z"/>
<path d="M11345 4936 c-29 -21 -15 -27 69 -29 83 -2 105 14 34 24 -24 4 -52
10 -63 13 -12 4 -28 1 -40 -8z"/>
<path d="M11626 4933 c-14 -8 -26 -22 -26 -32 0 -15 11 -19 61 -24 62 -7 101
4 128 37 13 15 10 16 -106 29 -17 2 -43 -3 -57 -10z"/>
<path d="M13760 4901 c0 -28 4 -41 13 -41 8 0 19 -10 26 -22 l12 -23 -5 23
c-4 20 4 27 27 23 4 0 7 12 7 28 0 22 -5 30 -22 34 -13 2 -31 8 -40 12 -16 6
-18 1 -18 -34z"/>
<path d="M11899 4910 c-21 -17 -22 -21 -9 -30 25 -16 142 -12 169 6 33 23 15
34 -66 39 -60 4 -75 2 -94 -15z"/>
<path d="M12180 4897 c-16 -10 -30 -22 -30 -26 0 -8 72 -27 135 -37 34 -5 45
-1 75 25 23 19 32 33 25 39 -5 5 -47 12 -92 14 -69 4 -87 2 -113 -15z"/>
<path d="M12293 4793 c-3 -10 -8 -22 -10 -28 -3 -5 3 -1 11 9 16 20 21 36 11
36 -3 0 -8 -8 -12 -17z"/>
<path d="M6127 4729 c-45 -11 -129 -72 -140 -102 -7 -18 -10 -19 -17 -7 -7 11
-8 6 -6 -17 5 -37 18 -62 43 -85 17 -15 24 -14 103 12 47 16 93 29 102 29 19
1 32 50 24 91 -2 14 -5 28 -5 31 -2 11 -50 59 -58 58 -4 -1 -25 -5 -46 -10z"/>
<path d="M6510 4690 c-19 -10 -41 -15 -50 -12 -11 4 -12 2 -4 -7 17 -19 65 -9
82 17 8 12 13 22 11 21 -2 -1 -20 -9 -39 -19z"/>
<path d="M6415 4614 c-26 -13 -27 -14 -5 -10 14 3 42 6 63 6 20 0 37 5 37 10
0 15 -60 11 -95 -6z"/>
<path d="M6447 4393 c-4 -3 -7 -11 -7 -17 0 -6 5 -5 12 2 6 6 9 14 7 17 -3 3
-9 2 -12 -2z"/>
<path d="M7660 4063 c0 -10 -9 -37 -20 -58 -13 -25 -18 -49 -15 -64 l6 -25
-19 24 -20 25 -10 -40 c-6 -22 -16 -67 -22 -100 -23 -126 -42 -171 -53 -127
-3 10 -5 6 -6 -11 -1 -19 3 -26 11 -21 8 5 9 2 5 -10 -5 -12 1 -20 18 -28 14
-6 27 -9 28 -7 2 2 13 51 25 108 12 58 25 107 27 110 15 14 29 -30 45 -144
l17 -128 49 -44 c33 -29 50 -39 52 -29 4 18 -53 395 -74 493 -8 39 -22 77 -30
83 -11 10 -14 9 -14 -7z"/>
<path d="M10059 3678 c0 -2 -2 -15 -3 -30 -1 -21 1 -24 11 -16 15 12 17 48 3
48 -5 0 -10 -1 -11 -2z"/>
<path d="M8611 3654 c0 -11 3 -14 6 -6 3 7 2 16 -1 19 -3 4 -6 -2 -5 -13z"/>
<path d="M10320 3570 c0 -5 6 -10 13 -11 6 0 20 -2 30 -4 21 -4 23 11 1 19
-24 9 -44 7 -44 -4z"/>
<path d="M8342 3390 c-7 -11 -9 -20 -4 -20 10 0 32 22 32 32 0 15 -15 8 -28
-12z"/>
<path d="M8315 3349 c-4 -6 -5 -12 -2 -15 2 -3 7 2 10 11 7 17 1 20 -8 4z"/>
<path d="M6436 2988 c-9 -84 -19 -174 -22 -200 -5 -44 -4 -49 35 -89 39 -41
40 -41 45 -18 5 23 41 301 53 407 l6 52 -50 0 -50 0 -17 -152z"/>
<path d="M10560 2710 c0 -5 5 -10 10 -10 6 0 10 5 10 10 0 6 -4 10 -10 10 -5
0 -10 -4 -10 -10z"/>
<path d="M6392 2523 c-4 -64 -33 -344 -42 -413 -16 -130 -21 -141 -67 -166
-61 -32 -86 -36 -215 -35 -107 1 -145 -7 -118 -24 8 -5 8 -11 0 -20 -9 -11 -4
-15 24 -20 19 -4 40 -4 47 0 6 4 62 11 124 15 126 9 174 27 220 82 50 59 54
77 90 403 19 168 20 157 -18 183 -42 28 -42 28 -45 -5z"/>
<path d="M7478 2376 c-2 -40 1 -61 14 -76 20 -25 24 -25 31 0 4 17 -23 114
-37 127 -2 2 -6 -20 -8 -51z"/>
<path d="M276 2365 c-8 -8 -25 -15 -38 -15 -13 0 -30 -5 -38 -10 -13 -9 -13
-11 0 -20 21 -14 36 -12 55 6 11 12 19 13 28 5 22 -17 57 -2 57 25 0 19 -5 24
-24 24 -14 0 -31 -7 -40 -15z"/>
<path d="M397 2349 c8 -8 16 -8 30 0 16 9 14 10 -11 11 -22 0 -27 -3 -19 -11z"/>
</g>
</svg>
